<?xml version="1.0" encoding="UTF-8"?>
<svg width="20px" height="20px" viewBox="0 0 20 20" version="1.1" xmlns="http://www.w3.org/2000/svg" xmlns:xlink="http://www.w3.org/1999/xlink">
    <!-- Generator: Sketch 60 (88103) - https://sketch.com -->
    <title>icon/common/restore_nor</title>
    <desc>Created with Sketch.</desc>
    <defs>
        <rect id="path-1" x="0" y="0.75" width="20" height="20"></rect>
    </defs>
    <g id="icon/common/restore_nor" stroke="none" stroke-width="1" fill="none" fill-rule="evenodd">
        <g id="透明度层" transform="translate(0.000000, -0.750000)">
            <mask id="mask-2" fill="white">
                <use xlink:href="#path-1"></use>
            </mask>
            <g id="蒙版"></g>
            <path d="M14,5 C15.4458427,5 16.6537483,6.04754205 16.7445252,7.40397452 L16.75,7.56818182 L16.75,13.9318182 C16.75,15.31178 15.5977037,16.4123976 14.1723028,16.4950191 L14,16.5 L10.9687351,16.500148 C10.6817347,16.6593469 10.3514539,16.75 10,16.75 L6,16.75 C4.8954305,16.75 4,15.8545695 4,14.75 L4,10.75 C4,9.91064983 4.51704954,9.19206304 5.25001516,8.89537313 L5.25,7.56818182 C5.25,6.18821995 6.40229625,5.08760245 7.82769725,5.00498093 L8,5 L14,5 Z M10,10.25 L6,10.25 C5.75454011,10.25 5.55039163,10.4268752 5.50805567,10.6601244 L5.5,10.75 L5.5,14.75 C5.5,14.9954599 5.67687516,15.1996084 5.91012437,15.2419443 L6,15.25 L10,15.25 C10.2454599,15.25 10.4496084,15.0731248 10.4919443,14.8398756 L10.5,14.75 L10.5,10.75 C10.5,10.5045401 10.3231248,10.3003916 10.0898756,10.2580557 L10,10.25 Z M14,6.5 L8,6.5 C7.34156822,6.5 6.82332021,6.9312296 6.75714684,7.4547173 L6.75,7.56818182 L6.75,8.75 L10,8.75 C11.1045695,8.75 12,9.6454305 12,10.75 L12,14.75 C12,14.8349404 11.9947049,14.9186441 11.9844268,15.000799 L14,15 C14.6584318,15 15.1766798,14.5687704 15.2428532,14.0452827 L15.25,13.9318182 L15.25,7.56818182 C15.25,7.03324383 14.7756474,6.5663517 14.1388332,6.50647692 L14,6.5 Z" id="形状结合" fill="#999999" mask="url(#mask-2)"></path>
        </g>
    </g>
</svg>