<?xml version="1.0" encoding="UTF-8"?>
<svg width="20px" height="20px" viewBox="0 0 20 20" version="1.1" xmlns="http://www.w3.org/2000/svg" xmlns:xlink="http://www.w3.org/1999/xlink">
    <!-- Generator: Sketch 60 (88103) - https://sketch.com -->
    <title>icon/common/max_nor</title>
    <desc>Created with Sketch.</desc>
    <defs>
        <rect id="path-1" x="0" y="0" width="20" height="20"></rect>
    </defs>
    <g id="icon/common/max_nor" stroke="none" stroke-width="1" fill="none" fill-rule="evenodd">
        <g id="透明度层">
            <mask id="mask-2" fill="white">
                <use xlink:href="#path-1"></use>
            </mask>
            <g id="蒙版"></g>
            <path d="M14,4 C15.1045695,4 16,4.8954305 16,6 L16,14 C16,15.1045695 15.1045695,16 14,16 L6,16 C4.8954305,16 4,15.1045695 4,14 L4,6 C4,4.8954305 4.8954305,4 6,4 L14,4 Z M14,5.5 L6,5.5 C5.75454011,5.5 5.55039163,5.67687516 5.50805567,5.91012437 L5.5,6 L5.5,14 C5.5,14.2454599 5.67687516,14.4496084 5.91012437,14.4919443 L6,14.5 L14,14.5 C14.2454599,14.5 14.4496084,14.3231248 14.4919443,14.0898756 L14.5,14 L14.5,6 C14.5,5.75454011 14.3231248,5.55039163 14.0898756,5.50805567 L14,5.5 Z" id="矩形" fill="#999999" mask="url(#mask-2)"></path>
        </g>
    </g>
</svg>